<?xml version="1.0" standalone="no" ?>
<!DOCTYPE svg PUBLIC "-//W3C//DTD SVG 1.1//EN" "http://www.w3.org/Graphics/SVG/1.1/DTD/svg11.dtd">
<svg width="590px" height="173px" viewBox="0 0 590 173" style="background-color: #ffffff00" xmlns="http://www.w3.org/2000/svg" xmlns:xlink="http://www.w3.org/1999/xlink" version="1.1" >
<text x="0" y="0" stroke="none" fill="#000000" transform="matrix(0.1 0 0 0.1 24.841 66.1278)" font-style="normal" font-weight="normal" font-size="200px" font-family="Arial" >
Cl</text>
<path stroke="none" fill="#000000" transform="matrix(0.1 0 0 0.1 -70.6 -661.4)" d="M 1370.48,7046.35 L 1370.48,7060.21 L 1177.78,7171.46 L 1171.78,7161.07 L 1370.48,7046.35 Z " />
<text x="0" y="0" stroke="none" fill="#000000" transform="matrix(0.1 0 0 0.1 84.1674 66.1278)" font-style="normal" font-weight="normal" font-size="200px" font-family="Arial" >
R</text>
<path stroke="none" fill="#000000" transform="matrix(0.1 0 0 0.1 -70.6 -661.4)" d="M 1525.81,7136.03 L 1519.81,7146.42 L 1370.48,7060.21 L 1370.48,7046.35 L 1525.81,7136.03 Z " />
<text x="0" y="0" stroke="none" fill="#000000" transform="matrix(0.1 0 0 0.1 58.6692 22.9279)" font-style="normal" font-weight="normal" font-size="200px" font-family="Arial" >
O</text>
<path stroke="none" fill="#000000" transform="matrix(0.1 0 0 0.1 -70.6 -661.4)" d="M 1328.48,6876.95 L 1340.48,6876.95 L 1340.48,7074.06 L 1328.48,7074.06 L 1328.48,6876.95 Z " />
<path stroke="none" fill="#000000" transform="matrix(0.1 0 0 0.1 -70.6 -661.4)" d="M 1400.48,6876.95 L 1412.47,6876.95 L 1412.47,7074.06 L 1400.48,7074.06 L 1400.48,6876.95 Z " />
<text x="0" y="0" stroke="none" fill="#000000" transform="matrix(0.1 0 0 0.1 4.62113 167.019)" font-style="normal" font-weight="normal" font-size="200px" font-family="Arial" >
R</text>
<path stroke="none" fill="#000000" transform="matrix(0.1 0 0 0.1 -70.6 -661.4)" d="M 1073.84,8055.26 L 1073.84,8069.12 L 913.825,8161.5 L 907.825,8151.11 L 1073.84,8055.26 Z " />
<text x="0" y="0" stroke="none" fill="#000000" transform="matrix(0.1 0 0 0.1 53.9475 167.019)" font-style="normal" font-weight="normal" font-size="200px" font-family="Arial" >
O</text>
<path stroke="none" fill="#000000" transform="matrix(0.1 0 0 0.1 -70.6 -661.4)" d="M 1240.77,8151.64 L 1234.77,8162.03 L 1073.84,8069.12 L 1073.84,8055.26 L 1240.77,8151.64 Z " />
<text x="0" y="0" stroke="none" fill="#000000" transform="matrix(0.1 0 0 0.1 29.006 123.819)" font-style="normal" font-weight="normal" font-size="200px" font-family="Arial" >
O</text>
<path stroke="none" fill="#000000" transform="matrix(0.1 0 0 0.1 -70.6 -661.4)" d="M 1031.84,7885.86 L 1043.84,7885.86 L 1043.84,8082.97 L 1031.84,8082.97 L 1031.84,7885.86 Z " />
<path stroke="none" fill="#000000" transform="matrix(0.1 0 0 0.1 -70.6 -661.4)" d="M 1103.84,7885.86 L 1115.84,7885.86 L 1115.84,8082.97 L 1103.84,8082.97 L 1103.84,7885.86 Z " />
<path stroke="none" fill="#000000" transform="matrix(0.1 0 0 0.1 -70.6 -661.4)" d="M 1572.67,8055.26 L 1572.67,8069.12 L 1412.07,8161.84 L 1406.07,8151.45 L 1572.67,8055.26 Z " />
<text x="0" y="0" stroke="none" fill="#000000" transform="matrix(0.1 0 0 0.1 104.387 167.019)" font-style="normal" font-weight="normal" font-size="200px" font-family="Arial" >
R</text>
<path stroke="none" fill="#000000" transform="matrix(0.1 0 0 0.1 -70.6 -661.4)" d="M 1728.01,8144.94 L 1722.01,8155.33 L 1572.67,8069.12 L 1572.67,8055.26 L 1728.01,8144.94 Z " />
<text x="0" y="0" stroke="none" fill="#000000" transform="matrix(0.1 0 0 0.1 78.889 123.819)" font-style="normal" font-weight="normal" font-size="200px" font-family="Arial" >
O</text>
<path stroke="none" fill="#000000" transform="matrix(0.1 0 0 0.1 -70.6 -661.4)" d="M 1530.67,7885.86 L 1542.67,7885.86 L 1542.67,8082.97 L 1530.67,8082.97 L 1530.67,7885.86 Z " />
<path stroke="none" fill="#000000" transform="matrix(0.1 0 0 0.1 -70.6 -661.4)" d="M 1602.67,7885.86 L 1614.67,7885.86 L 1614.67,8082.97 L 1602.67,8082.97 L 1602.67,7885.86 Z " />
<text x="0" y="0" stroke="none" fill="#000000" transform="matrix(0.1 0 0 0.1 178.641 109.857)" font-style="normal" font-weight="normal" font-size="200px" font-family="Arial" >
R</text>
<text x="0" y="0" stroke="none" fill="#000000" transform="matrix(0.1 0 0 0.1 193.084 114.257)" font-style="normal" font-weight="normal" font-size="150px" font-family="Arial" >
1</text>
<path stroke="none" fill="#000000" transform="matrix(0.1 0 0 0.1 -70.6 -661.4)" d="M 2914.07,7483.64 L 2914.07,7497.5 L 2709.62,7615.53 L 2703.62,7605.14 L 2914.07,7483.64 Z " />
<text x="0" y="0" stroke="none" fill="#000000" transform="matrix(0.1 0 0 0.1 238.527 109.857)" font-style="normal" font-weight="normal" font-size="200px" font-family="Arial" >
R</text>
<text x="0" y="0" stroke="none" fill="#000000" transform="matrix(0.1 0 0 0.1 252.97 114.257)" font-style="normal" font-weight="normal" font-size="150px" font-family="Arial" >
2</text>
<path stroke="none" fill="#000000" transform="matrix(0.1 0 0 0.1 -70.6 -661.4)" d="M 3069.4,7573.32 L 3063.4,7583.71 L 2914.07,7497.5 L 2914.07,7483.64 L 3069.4,7573.32 Z " />
<path stroke="none" fill="#000000" transform="matrix(0.1 0 0 0.1 -70.6 -661.4)" d="M 2872.07,7202.57 L 2884.07,7202.57 L 2884.07,7511.35 L 2872.07,7511.35 L 2872.07,7202.57 Z " />
<path stroke="none" fill="#000000" transform="matrix(0.1 0 0 0.1 -70.6 -661.4)" d="M 2944.07,7202.57 L 2956.07,7202.57 L 2956.07,7511.35 L 2944.07,7511.35 L 2944.07,7202.57 Z " />
<path stroke="none" fill="#000000" transform="matrix(0.1 0 0 0.1 -70.6 -661.4)" d="M 5345.07,7898.18 L 5333.07,7905.1 L 5333.07,7610.18 L 5345.07,7617.1 L 5345.07,7898.18 Z " />
<path stroke="none" fill="#000000" transform="matrix(0.1 0 0 0.1 -70.6 -661.4)" d="M 5588.48,8038.71 L 5588.48,8052.57 L 5333.07,7905.1 L 5345.07,7898.18 L 5588.48,8038.71 Z " />
<path stroke="none" fill="#000000" transform="matrix(0.1 0 0 0.1 -70.6 -661.4)" d="M 5831.9,7898.18 L 5837.9,7901.64 L 5839.51,7907.64 L 5588.48,8052.57 L 5588.48,8038.71 L 5831.9,7898.18 Z " />
<path stroke="none" fill="#000000" transform="matrix(0.1 0 0 0.1 -70.6 -661.4)" d="M 5831.9,7617.1 L 5837.9,7613.64 L 5843.9,7619.64 L 5843.9,7895.64 L 5837.9,7901.64 L 5831.9,7898.18 L 5831.9,7617.1 Z " />
<path stroke="none" fill="#000000" transform="matrix(0.1 0 0 0.1 -70.6 -661.4)" d="M 5588.48,7476.57 L 5588.48,7469.64 L 5594.48,7466.18 L 5839.51,7607.64 L 5837.9,7613.64 L 5831.9,7617.1 L 5588.48,7476.57 Z " />
<path stroke="none" fill="#000000" transform="matrix(0.1 0 0 0.1 -70.6 -661.4)" d="M 5585.48,7557.97 L 5591.48,7547.58 L 5768.9,7650.01 L 5762.9,7660.41 L 5585.48,7557.97 Z " />
<path stroke="none" fill="#000000" transform="matrix(0.1 0 0 0.1 -70.6 -661.4)" d="M 5345.07,7617.1 L 5333.07,7610.18 L 5582.48,7466.18 L 5588.48,7469.64 L 5588.48,7476.57 L 5345.07,7617.1 Z " />
<text x="0" y="0" stroke="none" fill="#000000" transform="matrix(0.1 0 0 0.1 480.47 64.5641)" font-style="normal" font-weight="normal" font-size="200px" font-family="Arial" >
O</text>
<path stroke="none" fill="#000000" transform="matrix(0.1 0 0 0.1 -70.6 -661.4)" d="M 5582.48,7293.31 L 5594.48,7293.31 L 5594.48,7466.18 L 5588.48,7469.64 L 5582.48,7466.18 L 5582.48,7293.31 Z " />
<path stroke="none" fill="#000000" transform="matrix(0.1 0 0 0.1 -70.6 -661.4)" d="M 5339.07,7044.57 L 5339.07,7030.71 L 5506,7127.09 L 5500,7137.48 L 5339.07,7044.57 Z " />
<text x="0" y="0" stroke="none" fill="#000000" transform="matrix(0.1 0 0 0.1 431.144 64.5641)" font-style="normal" font-weight="normal" font-size="200px" font-family="Arial" >
R</text>
<path stroke="none" fill="#000000" transform="matrix(0.1 0 0 0.1 -70.6 -661.4)" d="M 5179.05,7136.96 L 5173.05,7126.56 L 5339.07,7030.71 L 5339.07,7044.57 L 5179.05,7136.96 Z " />
<text x="0" y="0" stroke="none" fill="#000000" transform="matrix(0.1 0 0 0.1 455.528 21.3641)" font-style="normal" font-weight="normal" font-size="200px" font-family="Arial" >
O</text>
<path stroke="none" fill="#000000" transform="matrix(0.1 0 0 0.1 -70.6 -661.4)" d="M 5297.07,6861.31 L 5309.07,6861.31 L 5309.07,7058.43 L 5297.07,7058.43 L 5297.07,6861.31 Z " />
<path stroke="none" fill="#000000" transform="matrix(0.1 0 0 0.1 -70.6 -661.4)" d="M 5369.07,6861.31 L 5381.07,6861.31 L 5381.07,7058.43 L 5369.07,7058.43 L 5369.07,6861.31 Z " />
<path stroke="none" fill="#000000" transform="matrix(0.1 0 0 0.1 -70.6 -661.4)" d="M 6119.9,7895.64 L 6125.9,7901.64 L 6121.29,7907.64 L 5839.51,7907.64 L 5837.9,7901.64 L 5843.9,7895.64 L 6119.9,7895.64 Z " />
<path stroke="none" fill="#000000" transform="matrix(0.1 0 0 0.1 -70.6 -661.4)" d="M 6119.9,7619.64 L 6131.9,7607.64 L 6131.9,7897.04 L 6125.9,7901.64 L 6119.9,7895.64 L 6119.9,7619.64 Z " />
<path stroke="none" fill="#000000" transform="matrix(0.1 0 0 0.1 -70.6 -661.4)" d="M 5843.9,7619.64 L 5837.9,7613.64 L 5839.51,7607.64 L 6131.9,7607.64 L 6119.9,7619.64 L 5843.9,7619.64 Z " />
<text x="0" y="0" stroke="none" fill="#000000" transform="matrix(0.1 0 0 0.1 542.222 164.383)" font-style="normal" font-weight="normal" font-size="200px" font-family="Arial" >
R</text>
<text x="0" y="0" stroke="none" fill="#000000" transform="matrix(0.1 0 0 0.1 556.665 168.783)" font-style="normal" font-weight="normal" font-size="150px" font-family="Arial" >
2</text>
<path stroke="none" fill="#000000" transform="matrix(0.1 0 0 0.1 -70.6 -661.4)" d="M 6178.54,8074.94 L 6166.95,8078.04 L 6121.29,7907.64 L 6125.9,7901.64 L 6134.38,7910.13 L 6178.54,8074.94 Z " />
<text x="0" y="0" stroke="none" fill="#000000" transform="matrix(0.1 0 0 0.1 562.587 144.018)" font-style="normal" font-weight="normal" font-size="200px" font-family="Arial" >
R</text>
<text x="0" y="0" stroke="none" fill="#000000" transform="matrix(0.1 0 0 0.1 577.03 148.418)" font-style="normal" font-weight="normal" font-size="150px" font-family="Arial" >
1</text>
<path stroke="none" fill="#000000" transform="matrix(0.1 0 0 0.1 -70.6 -661.4)" d="M 6308.82,7944.44 L 6305.71,7956.03 L 6134.38,7910.13 L 6125.9,7901.64 L 6131.9,7897.04 L 6308.82,7944.44 Z " />
<text x="0" y="0" stroke="none" fill="#000000" transform="matrix(0.1 0 0 0.1 52.8342 92.9567)" font-style="normal" font-weight="normal" font-size="200px" font-family="Arial" >
or</text>
<text x="0" y="0" stroke="none" fill="#000000" transform="matrix(0.1 0 0 0.1 142.896 92.9567)" font-style="normal" font-weight="normal" font-size="200px" font-family="Arial" >
+</text>
<path stroke="none" fill="#000000" transform="matrix(0.1 0 0 0.1 -70.6 -661.4)" d="M 4541.5,7488.07 L 3559.78,7488.07 L 3559.78,7476.07 L 4541.5,7476.07 Z " />
<path stroke="none" fill="#000000" transform="matrix(0.1 0 0 0.1 -70.6 -661.4)" d="M 4776.78,7482.07 C 4776.78,7482.07 4506.79,7550.63 4506.79,7550.63 C 4506.79,7550.63 4540.5,7512.07 4540.5,7482.07 C 4540.5,7451.63 4506.79,7412.51 4506.79,7412.51 C 4506.79,7412.51 4776.78,7482.07 4776.78,7482.07 C 4776.78,7482.07 4776.78,7482.07 4776.78,7482.07 " />
<path stroke="#000000" stroke-width="1" fill="none" transform="matrix(0.1 0 0 0.1 -70.6 -661.4)" d="M 4776.78,7482.07 C 4776.78,7482.07 4506.79,7550.63 4506.79,7550.63 C 4506.79,7550.63 4540.5,7512.07 4540.5,7482.07 C 4540.5,7451.63 4506.79,7412.51 4506.79,7412.51 C 4506.79,7412.51 4776.78,7482.07 4776.78,7482.07 C 4776.78,7482.07 4776.78,7482.07 4776.78,7482.07 " />
</svg>
