<?xml version="1.0" standalone="no" ?>
<!DOCTYPE svg PUBLIC "-//W3C//DTD SVG 1.1//EN" "http://www.w3.org/Graphics/SVG/1.1/DTD/svg11.dtd">
<svg width="611px" height="189px" viewBox="0 0 611 189" style="background-color: #ffffff00" xmlns="http://www.w3.org/2000/svg" xmlns:xlink="http://www.w3.org/1999/xlink" version="1.1" >
<text x="0" y="0" stroke="none" fill="#000000" transform="matrix(0.1 0 0 0.1 215.465 66.3626)" font-style="normal" font-weight="normal" font-size="200px" font-family="Arial" >
X</text>
<path stroke="none" fill="#000000" transform="matrix(0.1 0 0 0.1 -64.6 -886.4)" d="M 2967.94,9529.85 L 2974.97,9520.13 L 3101.68,9611.86 L 3100.63,9618.51 L 3093.58,9620.81 L 2967.94,9529.85 Z " />
<path stroke="none" fill="#000000" transform="matrix(0.1 0 0 0.1 -64.6 -886.4)" d="M 2641.7,9621.58 L 2634.64,9619.3 L 2633.58,9612.66 L 2760.29,9520.26 L 2767.36,9529.96 L 2641.7,9621.58 Z " />
<path stroke="none" fill="#000000" transform="matrix(0.1 0 0 0.1 -64.6 -886.4)" d="M 2728.45,9887.05 L 2724.1,9893.06 L 2717.45,9892.01 L 2629.89,9624.07 L 2634.64,9619.3 L 2641.7,9621.58 L 2728.45,9887.05 Z " />
<path stroke="none" fill="#000000" transform="matrix(0.1 0 0 0.1 -64.6 -886.4)" d="M 2782,9819.1 L 2770.59,9822.83 L 2713.62,9648.53 L 2725.03,9644.8 L 2782,9819.1 Z " />
<path stroke="none" fill="#000000" transform="matrix(0.1 0 0 0.1 -64.6 -886.4)" d="M 3007.73,9886.57 L 3012.1,9892.57 L 3009.06,9898.57 L 2727.17,9899.05 L 2724.1,9893.06 L 2728.45,9887.05 L 3007.73,9886.57 Z " />
<path stroke="none" fill="#000000" transform="matrix(0.1 0 0 0.1 -64.6 -886.4)" d="M 3093.58,9620.81 L 3100.63,9618.51 L 3105.4,9623.26 L 3018.75,9891.5 L 3012.1,9892.57 L 3007.73,9886.57 L 3093.58,9620.81 Z " />
<path stroke="none" fill="#000000" transform="matrix(0.1 0 0 0.1 -64.6 -886.4)" d="M 3010.33,9644.31 L 3021.75,9648 L 2965.38,9822.5 L 2953.96,9818.81 L 3010.33,9644.31 Z " />
<text x="0" y="0" stroke="none" fill="#000000" transform="matrix(0.1 0 0 0.1 154.234 74.4774)" font-style="normal" font-weight="normal" font-size="200px" font-family="Arial" >
R</text>
<text x="0" y="0" stroke="none" fill="#000000" transform="matrix(0.1 0 0 0.1 168.678 78.8774)" font-style="normal" font-weight="normal" font-size="150px" font-family="Arial" >
1</text>
<path stroke="none" fill="#000000" transform="matrix(0.1 0 0 0.1 -64.6 -886.4)" d="M 2428.42,9558.99 L 2432.1,9547.57 L 2633.58,9612.66 L 2634.64,9619.3 L 2629.89,9624.07 L 2428.42,9558.99 Z " />
<text x="0" y="0" stroke="none" fill="#000000" transform="matrix(0.1 0 0 0.1 186.481 134.034)" font-style="normal" font-weight="normal" font-size="200px" font-family="Arial" >
R</text>
<text x="0" y="0" stroke="none" fill="#000000" transform="matrix(0.1 0 0 0.1 200.924 138.434)" font-style="normal" font-weight="normal" font-size="150px" font-family="Arial" >
2</text>
<path stroke="none" fill="#000000" transform="matrix(0.1 0 0 0.1 -64.6 -886.4)" d="M 2629.43,10034.1 L 2619.71,10027 L 2717.45,9892.01 L 2724.1,9893.06 L 2727.17,9899.05 L 2629.43,10034.1 Z " />
<text x="0" y="0" stroke="none" fill="#000000" transform="matrix(0.1 0 0 0.1 246.357 133.927)" font-style="normal" font-weight="normal" font-size="200px" font-family="Arial" >
R</text>
<text x="0" y="0" stroke="none" fill="#000000" transform="matrix(0.1 0 0 0.1 260.8 138.327)" font-style="normal" font-weight="normal" font-size="150px" font-family="Arial" >
4</text>
<path stroke="none" fill="#000000" transform="matrix(0.1 0 0 0.1 -64.6 -886.4)" d="M 3118.35,10028.1 L 3108.66,10035.2 L 3009.06,9898.57 L 3012.1,9892.57 L 3018.75,9891.5 L 3118.35,10028.1 Z " />
<text x="0" y="0" stroke="none" fill="#000000" transform="matrix(0.1 0 0 0.1 265.617 74.3047)" font-style="normal" font-weight="normal" font-size="200px" font-family="Arial" >
R</text>
<text x="0" y="0" stroke="none" fill="#000000" transform="matrix(0.1 0 0 0.1 280.06 78.7047)" font-style="normal" font-weight="normal" font-size="150px" font-family="Arial" >
3</text>
<path stroke="none" fill="#000000" transform="matrix(0.1 0 0 0.1 -64.6 -886.4)" d="M 3274.14,9555.5 L 3277.87,9566.9 L 3105.4,9623.26 L 3100.63,9618.51 L 3101.68,9611.86 L 3274.14,9555.5 Z " />
<path stroke="none" fill="#000000" transform="matrix(0.1 0 0 0.1 -64.6 -886.4)" d="M 5311.9,10145.3 L 5299.9,10152.2 L 5299.9,9857.27 L 5311.9,9864.2 L 5311.9,10145.3 Z " />
<path stroke="none" fill="#000000" transform="matrix(0.1 0 0 0.1 -64.6 -886.4)" d="M 5555.32,10285.8 L 5555.32,10299.7 L 5299.9,10152.2 L 5311.9,10145.3 L 5555.32,10285.8 Z " />
<path stroke="none" fill="#000000" transform="matrix(0.1 0 0 0.1 -64.6 -886.4)" d="M 5798.73,10145.3 L 5804.73,10148.7 L 5804.73,10155.7 L 5555.32,10299.7 L 5555.32,10285.8 L 5798.73,10145.3 Z " />
<path stroke="none" fill="#000000" transform="matrix(0.1 0 0 0.1 -64.6 -886.4)" d="M 5798.73,9864.2 L 5804.73,9860.73 L 5810.73,9864.2 L 5810.73,10145.3 L 5804.73,10148.7 L 5798.73,10145.3 L 5798.73,9864.2 Z " />
<path stroke="none" fill="#000000" transform="matrix(0.1 0 0 0.1 -64.6 -886.4)" d="M 5555.32,9723.66 L 5555.32,9716.73 L 5561.32,9713.27 L 5804.73,9853.81 L 5804.73,9860.73 L 5798.73,9864.2 L 5555.32,9723.66 Z " />
<path stroke="none" fill="#000000" transform="matrix(0.1 0 0 0.1 -64.6 -886.4)" d="M 5552.32,9805.07 L 5558.32,9794.68 L 5735.73,9897.11 L 5729.74,9907.5 L 5552.32,9805.07 Z " />
<path stroke="none" fill="#000000" transform="matrix(0.1 0 0 0.1 -64.6 -886.4)" d="M 5311.9,9864.2 L 5299.9,9857.27 L 5549.32,9713.27 L 5555.32,9716.73 L 5555.32,9723.66 L 5311.9,9864.2 Z " />
<text x="0" y="0" stroke="none" fill="#000000" transform="matrix(0.1 0 0 0.1 483.154 64.2734)" font-style="normal" font-weight="normal" font-size="200px" font-family="Arial" >
O</text>
<path stroke="none" fill="#000000" transform="matrix(0.1 0 0 0.1 -64.6 -886.4)" d="M 5549.32,9540.4 L 5561.32,9540.4 L 5561.32,9713.27 L 5555.32,9716.73 L 5549.32,9713.27 L 5549.32,9540.4 Z " />
<path stroke="none" fill="#000000" transform="matrix(0.1 0 0 0.1 -64.6 -886.4)" d="M 5305.9,9291.66 L 5305.9,9277.81 L 5472.84,9374.18 L 5466.84,9384.58 L 5305.9,9291.66 Z " />
<text x="0" y="0" stroke="none" fill="#000000" transform="matrix(0.1 0 0 0.1 433.827 64.2734)" font-style="normal" font-weight="normal" font-size="200px" font-family="Arial" >
R</text>
<path stroke="none" fill="#000000" transform="matrix(0.1 0 0 0.1 -64.6 -886.4)" d="M 5145.89,9384.05 L 5139.89,9373.66 L 5305.9,9277.81 L 5305.9,9291.66 L 5145.89,9384.05 Z " />
<text x="0" y="0" stroke="none" fill="#000000" transform="matrix(0.1 0 0 0.1 458.212 21.0734)" font-style="normal" font-weight="normal" font-size="200px" font-family="Arial" >
O</text>
<path stroke="none" fill="#000000" transform="matrix(0.1 0 0 0.1 -64.6 -886.4)" d="M 5263.9,9108.4 L 5275.9,9108.4 L 5275.9,9305.52 L 5263.9,9305.52 L 5263.9,9108.4 Z " />
<path stroke="none" fill="#000000" transform="matrix(0.1 0 0 0.1 -64.6 -886.4)" d="M 5335.9,9108.4 L 5347.9,9108.4 L 5347.9,9305.52 L 5335.9,9305.52 L 5335.9,9108.4 Z " />
<path stroke="none" fill="#000000" transform="matrix(0.1 0 0 0.1 -64.6 -886.4)" d="M 6051.19,10284.1 L 6054.15,10292.7 L 6048.15,10296.2 L 5804.73,10155.7 L 5804.73,10148.7 L 5810.73,10145.3 L 6051.19,10284.1 Z " />
<path stroke="none" fill="#000000" transform="matrix(0.1 0 0 0.1 -64.6 -886.4)" d="M 6297.57,10145.3 L 6303.57,10148.7 L 6303.57,10155.7 L 6060.15,10296.2 L 6054.15,10292.7 L 6066.32,10278.8 L 6297.57,10145.3 Z " />
<path stroke="none" fill="#000000" transform="matrix(0.1 0 0 0.1 -64.6 -886.4)" d="M 6297.57,9864.2 L 6303.57,9860.73 L 6309.56,9864.2 L 6309.56,10145.3 L 6303.57,10148.7 L 6297.57,10145.3 L 6297.57,9864.2 Z " />
<path stroke="none" fill="#000000" transform="matrix(0.1 0 0 0.1 -64.6 -886.4)" d="M 6066.32,9730.69 L 6054.15,9716.73 L 6060.15,9713.27 L 6303.57,9853.81 L 6303.57,9860.73 L 6297.57,9864.2 L 6066.32,9730.69 Z " />
<path stroke="none" fill="#000000" transform="matrix(0.1 0 0 0.1 -64.6 -886.4)" d="M 5810.73,9864.2 L 5804.73,9860.73 L 5804.73,9853.81 L 6048.15,9713.27 L 6054.15,9716.73 L 6051.19,9725.37 L 5810.73,9864.2 Z " />
<text x="0" y="0" stroke="none" fill="#000000" transform="matrix(0.1 0 0 0.1 545.893 121.873)" font-style="normal" font-weight="normal" font-size="200px" font-family="Arial" >
X</text>
<path stroke="none" fill="#000000" transform="matrix(0.1 0 0 0.1 -64.6 -886.4)" d="M 6134.75,9898.44 L 6123.64,9902.97 L 6051.19,9725.37 L 6054.15,9716.73 L 6066.32,9730.69 L 6134.75,9898.44 Z " />
<path stroke="none" fill="#000000" transform="matrix(0.1 0 0 0.1 -64.6 -886.4)" d="M 6066.32,10278.8 L 6054.15,10292.7 L 6051.19,10284.1 L 6118.06,10120.2 L 6129.17,10124.7 L 6066.32,10278.8 Z " />
<text x="0" y="0" stroke="none" fill="#000000" transform="matrix(0.1 0 0 0.1 533.593 64.2734)" font-style="normal" font-weight="normal" font-size="200px" font-family="Arial" >
R</text>
<text x="0" y="0" stroke="none" fill="#000000" transform="matrix(0.1 0 0 0.1 548.037 68.6734)" font-style="normal" font-weight="normal" font-size="150px" font-family="Arial" >
1</text>
<path stroke="none" fill="#000000" transform="matrix(0.1 0 0 0.1 -64.6 -886.4)" d="M 6048.15,9539.9 L 6060.15,9539.9 L 6060.15,9713.27 L 6054.15,9716.73 L 6048.15,9713.27 L 6048.15,9539.9 Z " />
<text x="0" y="0" stroke="none" fill="#000000" transform="matrix(0.1 0 0 0.1 583.476 93.0733)" font-style="normal" font-weight="normal" font-size="200px" font-family="Arial" >
R</text>
<text x="0" y="0" stroke="none" fill="#000000" transform="matrix(0.1 0 0 0.1 597.92 97.4733)" font-style="normal" font-weight="normal" font-size="150px" font-family="Arial" >
2</text>
<path stroke="none" fill="#000000" transform="matrix(0.1 0 0 0.1 -64.6 -886.4)" d="M 6447.12,9770.92 L 6453.12,9781.31 L 6309.56,9864.2 L 6303.57,9860.73 L 6303.57,9853.81 L 6447.12,9770.92 Z " />
<text x="0" y="0" stroke="none" fill="#000000" transform="matrix(0.1 0 0 0.1 583.476 150.673)" font-style="normal" font-weight="normal" font-size="200px" font-family="Arial" >
R</text>
<text x="0" y="0" stroke="none" fill="#000000" transform="matrix(0.1 0 0 0.1 597.92 155.073)" font-style="normal" font-weight="normal" font-size="150px" font-family="Arial" >
4</text>
<path stroke="none" fill="#000000" transform="matrix(0.1 0 0 0.1 -64.6 -886.4)" d="M 6458.9,10231.5 L 6452.9,10241.9 L 6303.57,10155.7 L 6303.57,10148.7 L 6309.56,10145.3 L 6458.9,10231.5 Z " />
<text x="0" y="0" stroke="none" fill="#000000" transform="matrix(0.1 0 0 0.1 533.593 179.473)" font-style="normal" font-weight="normal" font-size="200px" font-family="Arial" >
R</text>
<text x="0" y="0" stroke="none" fill="#000000" transform="matrix(0.1 0 0 0.1 548.037 183.873)" font-style="normal" font-weight="normal" font-size="150px" font-family="Arial" >
3</text>
<path stroke="none" fill="#000000" transform="matrix(0.1 0 0 0.1 -64.6 -886.4)" d="M 6060.15,10485.9 L 6048.15,10485.9 L 6048.15,10296.2 L 6054.15,10292.7 L 6060.15,10296.2 L 6060.15,10485.9 Z " />
<text x="0" y="0" stroke="none" fill="#000000" transform="matrix(0.1 0 0 0.1 24.841 73.6278)" font-style="normal" font-weight="normal" font-size="200px" font-family="Arial" >
Cl</text>
<path stroke="none" fill="#000000" transform="matrix(0.1 0 0 0.1 -64.6 -886.4)" d="M 1310.48,9371.35 L 1310.48,9385.21 L 1117.78,9496.46 L 1111.78,9486.07 L 1310.48,9371.35 Z " />
<text x="0" y="0" stroke="none" fill="#000000" transform="matrix(0.1 0 0 0.1 84.1674 73.6278)" font-style="normal" font-weight="normal" font-size="200px" font-family="Arial" >
R</text>
<path stroke="none" fill="#000000" transform="matrix(0.1 0 0 0.1 -64.6 -886.4)" d="M 1465.81,9461.03 L 1459.81,9471.42 L 1310.48,9385.21 L 1310.48,9371.35 L 1465.81,9461.03 Z " />
<text x="0" y="0" stroke="none" fill="#000000" transform="matrix(0.1 0 0 0.1 58.6692 30.4278)" font-style="normal" font-weight="normal" font-size="200px" font-family="Arial" >
O</text>
<path stroke="none" fill="#000000" transform="matrix(0.1 0 0 0.1 -64.6 -886.4)" d="M 1268.48,9201.94 L 1280.48,9201.94 L 1280.48,9399.06 L 1268.48,9399.06 L 1268.48,9201.94 Z " />
<path stroke="none" fill="#000000" transform="matrix(0.1 0 0 0.1 -64.6 -886.4)" d="M 1340.48,9201.94 L 1352.47,9201.94 L 1352.47,9399.06 L 1340.48,9399.06 L 1340.48,9201.94 Z " />
<text x="0" y="0" stroke="none" fill="#000000" transform="matrix(0.1 0 0 0.1 4.62113 174.519)" font-style="normal" font-weight="normal" font-size="200px" font-family="Arial" >
R</text>
<path stroke="none" fill="#000000" transform="matrix(0.1 0 0 0.1 -64.6 -886.4)" d="M 1013.84,10380.3 L 1013.84,10394.1 L 853.825,10486.5 L 847.825,10476.1 L 1013.84,10380.3 Z " />
<text x="0" y="0" stroke="none" fill="#000000" transform="matrix(0.1 0 0 0.1 53.9475 174.519)" font-style="normal" font-weight="normal" font-size="200px" font-family="Arial" >
O</text>
<path stroke="none" fill="#000000" transform="matrix(0.1 0 0 0.1 -64.6 -886.4)" d="M 1180.77,10476.6 L 1174.77,10487 L 1013.84,10394.1 L 1013.84,10380.3 L 1180.77,10476.6 Z " />
<text x="0" y="0" stroke="none" fill="#000000" transform="matrix(0.1 0 0 0.1 29.006 131.319)" font-style="normal" font-weight="normal" font-size="200px" font-family="Arial" >
O</text>
<path stroke="none" fill="#000000" transform="matrix(0.1 0 0 0.1 -64.6 -886.4)" d="M 971.844,10210.9 L 983.843,10210.9 L 983.843,10408 L 971.844,10408 L 971.844,10210.9 Z " />
<path stroke="none" fill="#000000" transform="matrix(0.1 0 0 0.1 -64.6 -886.4)" d="M 1043.84,10210.9 L 1055.84,10210.9 L 1055.84,10408 L 1043.84,10408 L 1043.84,10210.9 Z " />
<path stroke="none" fill="#000000" transform="matrix(0.1 0 0 0.1 -64.6 -886.4)" d="M 1512.67,10380.3 L 1512.67,10394.1 L 1352.07,10486.8 L 1346.07,10476.5 L 1512.67,10380.3 Z " />
<text x="0" y="0" stroke="none" fill="#000000" transform="matrix(0.1 0 0 0.1 104.387 174.519)" font-style="normal" font-weight="normal" font-size="200px" font-family="Arial" >
R</text>
<path stroke="none" fill="#000000" transform="matrix(0.1 0 0 0.1 -64.6 -886.4)" d="M 1668.01,10469.9 L 1662.01,10480.3 L 1512.67,10394.1 L 1512.67,10380.3 L 1668.01,10469.9 Z " />
<text x="0" y="0" stroke="none" fill="#000000" transform="matrix(0.1 0 0 0.1 78.889 131.319)" font-style="normal" font-weight="normal" font-size="200px" font-family="Arial" >
O</text>
<path stroke="none" fill="#000000" transform="matrix(0.1 0 0 0.1 -64.6 -886.4)" d="M 1470.67,10210.9 L 1482.67,10210.9 L 1482.67,10408 L 1470.67,10408 L 1470.67,10210.9 Z " />
<path stroke="none" fill="#000000" transform="matrix(0.1 0 0 0.1 -64.6 -886.4)" d="M 1542.67,10210.9 L 1554.67,10210.9 L 1554.67,10408 L 1542.67,10408 L 1542.67,10210.9 Z " />
<text x="0" y="0" stroke="none" fill="#000000" transform="matrix(0.1 0 0 0.1 52.8342 100.457)" font-style="normal" font-weight="normal" font-size="200px" font-family="Arial" >
or</text>
<path stroke="none" fill="#000000" transform="matrix(0.1 0 0 0.1 -64.6 -886.4)" d="M 4630.38,9813.07 L 3648.65,9813.07 L 3648.65,9801.07 L 4630.38,9801.07 Z " />
<path stroke="none" fill="#000000" transform="matrix(0.1 0 0 0.1 -64.6 -886.4)" d="M 4865.65,9807.07 C 4865.65,9807.07 4595.66,9875.63 4595.66,9875.63 C 4595.66,9875.63 4629.38,9837.07 4629.38,9807.07 C 4629.38,9776.63 4595.66,9737.51 4595.66,9737.51 C 4595.66,9737.51 4865.65,9807.07 4865.65,9807.07 C 4865.65,9807.07 4865.65,9807.07 4865.65,9807.07 " />
<path stroke="#000000" stroke-width="1" fill="none" transform="matrix(0.1 0 0 0.1 -64.6 -886.4)" d="M 4865.65,9807.07 C 4865.65,9807.07 4595.66,9875.63 4595.66,9875.63 C 4595.66,9875.63 4629.38,9837.07 4629.38,9807.07 C 4629.38,9776.63 4595.66,9737.51 4595.66,9737.51 C 4595.66,9737.51 4865.65,9807.07 4865.65,9807.07 C 4865.65,9807.07 4865.65,9807.07 4865.65,9807.07 " />
<text x="0" y="0" stroke="none" fill="#000000" transform="matrix(0.1 0 0 0.1 130.693 100.457)" font-style="normal" font-weight="normal" font-size="200px" font-family="Arial" >
+</text>
</svg>
