<?xml version="1.0" standalone="no" ?>
<!DOCTYPE svg PUBLIC "-//W3C//DTD SVG 1.1//EN" "http://www.w3.org/Graphics/SVG/1.1/DTD/svg11.dtd">
<svg width="585px" height="104px" viewBox="0 0 585 104" style="background-color: #ffffff00" xmlns="http://www.w3.org/2000/svg" xmlns:xlink="http://www.w3.org/1999/xlink" version="1.1" >
<text x="0" y="0" stroke="none" fill="#000000" transform="matrix(0.1 0 0 0.1 29.6583 56.44)" font-style="normal" font-weight="normal" font-size="200px" font-family="Arial" >
NH</text>
<text x="0" y="0" stroke="none" fill="#000000" transform="matrix(0.1 0 0 0.1 4.69831 42.04)" font-style="normal" font-weight="normal" font-size="200px" font-family="Arial" >
R</text>
<text x="0" y="0" stroke="none" fill="#000000" transform="matrix(0.1 0 0 0.1 19.1417 34.24)" font-style="normal" font-weight="normal" font-size="150px" font-family="Arial" >
1</text>
<path stroke="none" fill="#000000" transform="matrix(0.1 0 0 0.1 -20.6 -524.6)" d="M 433.355,5657.72 L 439.352,5647.33 L 480.705,5671.19 L 474.708,5681.58 L 433.355,5657.72 Z " />
<text x="0" y="0" stroke="none" fill="#000000" transform="matrix(0.1 0 0 0.1 29.6583 85.24)" font-style="normal" font-weight="normal" font-size="200px" font-family="Arial" >
R</text>
<text x="0" y="0" stroke="none" fill="#000000" transform="matrix(0.1 0 0 0.1 44.1017 77.44)" font-style="normal" font-weight="normal" font-size="150px" font-family="Arial" >
2</text>
<path stroke="none" fill="#000000" transform="matrix(0.1 0 0 0.1 -20.6 -524.6)" d="M 580.8,5883.4 L 568.8,5883.4 L 568.8,5841.57 L 580.8,5841.57 L 580.8,5883.4 Z " />
<text x="0" y="0" stroke="none" fill="#000000" transform="matrix(0.1 0 0 0.1 495.438 70.82)" font-style="normal" font-weight="normal" font-size="200px" font-family="Arial" >
N</text>
<text x="0" y="0" stroke="none" fill="#000000" transform="matrix(0.1 0 0 0.1 470.498 56.42)" font-style="normal" font-weight="normal" font-size="200px" font-family="Arial" >
R</text>
<text x="0" y="0" stroke="none" fill="#000000" transform="matrix(0.1 0 0 0.1 484.942 48.62)" font-style="normal" font-weight="normal" font-size="150px" font-family="Arial" >
1</text>
<path stroke="none" fill="#000000" transform="matrix(0.1 0 0 0.1 -20.6 -524.6)" d="M 5091.34,5801.57 L 5097.34,5791.18 L 5138.52,5814.95 L 5132.52,5825.34 L 5091.34,5801.57 Z " />
<text x="0" y="0" stroke="none" fill="#000000" transform="matrix(0.1 0 0 0.1 495.438 99.62)" font-style="normal" font-weight="normal" font-size="200px" font-family="Arial" >
R</text>
<text x="0" y="0" stroke="none" fill="#000000" transform="matrix(0.1 0 0 0.1 509.882 91.82)" font-style="normal" font-weight="normal" font-size="150px" font-family="Arial" >
2</text>
<path stroke="none" fill="#000000" transform="matrix(0.1 0 0 0.1 -20.6 -524.6)" d="M 5238.6,6027.2 L 5226.6,6027.2 L 5226.6,5985.37 L 5238.6,5985.37 L 5238.6,6027.2 Z " />
<path stroke="none" fill="#000000" transform="matrix(0.1 0 0 0.1 -20.6 -524.6)" d="M 5476.3,5728.56 L 5482,5732.2 L 5482.41,5738.89 L 5332.36,5825.53 L 5326.36,5815.14 L 5476.3,5728.56 Z " />
<text x="0" y="0" stroke="none" fill="#000000" transform="matrix(0.1 0 0 0.1 546.898 67.66)" font-style="normal" font-weight="normal" font-size="200px" font-family="Arial" >
N</text>
<text x="0" y="0" stroke="none" fill="#000000" transform="matrix(0.1 0 0 0.1 565.778 45.92)" font-style="normal" font-weight="normal" font-size="200px" font-family="Arial" >
N</text>
<text x="0" y="0" stroke="none" fill="#000000" transform="matrix(0.1 0 0 0.1 550.958 21.24)" font-style="normal" font-weight="normal" font-size="200px" font-family="Arial" >
N</text>
<text x="0" y="0" stroke="none" fill="#000000" transform="matrix(0.1 0 0 0.1 522.898 27.72)" font-style="normal" font-weight="normal" font-size="200px" font-family="Arial" >
N</text>
<path stroke="none" fill="#000000" transform="matrix(0.1 0 0 0.1 -20.6 -524.6)" d="M 5649.85,5796.82 L 5645.16,5807.87 L 5482.41,5738.89 L 5482,5732.2 L 5488.36,5728.38 L 5649.85,5796.82 Z " />
<path stroke="none" fill="#000000" transform="matrix(0.1 0 0 0.1 -20.6 -524.6)" d="M 5848.12,5719.25 L 5857.18,5727.12 L 5827.8,5760.94 L 5818.74,5753.07 L 5848.12,5719.25 Z " />
<path stroke="none" fill="#000000" transform="matrix(0.1 0 0 0.1 -20.6 -524.6)" d="M 5847.97,5492.26 L 5858.26,5486.08 L 5882.04,5525.69 L 5871.75,5531.86 L 5847.97,5492.26 Z " />
<path stroke="none" fill="#000000" transform="matrix(0.1 0 0 0.1 -20.6 -524.6)" d="M 5803.55,5518.93 L 5813.83,5512.76 L 5837.62,5552.36 L 5827.33,5558.54 L 5803.55,5518.93 Z " />
<path stroke="none" fill="#000000" transform="matrix(0.1 0 0 0.1 -20.6 -524.6)" d="M 5604.05,5428.99 L 5601.35,5417.3 L 5690.68,5396.67 L 5693.38,5408.36 L 5604.05,5428.99 Z " />
<path stroke="none" fill="#000000" transform="matrix(0.1 0 0 0.1 -20.6 -524.6)" d="M 5488.36,5728.38 L 5482,5732.2 L 5476.3,5728.56 L 5491.7,5553.13 L 5503.65,5554.18 L 5488.36,5728.38 Z " />
<path stroke="none" fill="#000000" transform="matrix(0.1 0 0 0.1 -20.6 -524.6)" d="M 5542.94,5699.69 L 5530.98,5698.64 L 5543.36,5557.66 L 5555.31,5558.71 L 5542.94,5699.69 Z " />
<text x="0" y="0" stroke="none" fill="#000000" transform="matrix(0.1 0 0 0.1 553.378 95.72)" font-style="normal" font-weight="normal" font-size="200px" font-family="Arial" >
R</text>
<text x="0" y="0" stroke="none" fill="#000000" transform="matrix(0.1 0 0 0.1 567.822 87.92)" font-style="normal" font-weight="normal" font-size="150px" font-family="Arial" >
3</text>
<path stroke="none" fill="#000000" transform="matrix(0.1 0 0 0.1 -20.6 -524.6)" d="M 5794.14,6021.19 L 5782.45,6023.89 L 5768.3,5962.62 L 5779.99,5959.92 L 5794.14,6021.19 Z " />
<path stroke="none" fill="#000000" transform="matrix(0.1 0 0 0.1 -20.6 -524.6)" d="M 4133.64,5775.4 L 3583.6,5775.4 L 3583.6,5763.4 L 4133.64,5763.4 Z " />
<path stroke="none" fill="#000000" transform="matrix(0.1 0 0 0.1 -20.6 -524.6)" d="M 4290.2,5769.4 C 4290.2,5769.4 4110.2,5815.4 4110.2,5815.4 C 4110.2,5815.4 4132.64,5789.53 4132.64,5769.4 C 4132.64,5748.83 4110.2,5722.4 4110.2,5722.4 C 4110.2,5722.4 4290.2,5769.4 4290.2,5769.4 C 4290.2,5769.4 4290.2,5769.4 4290.2,5769.4 " />
<path stroke="#000000" stroke-width="1" fill="none" transform="matrix(0.1 0 0 0.1 -20.6 -524.6)" d="M 4290.2,5769.4 C 4290.2,5769.4 4110.2,5815.4 4110.2,5815.4 C 4110.2,5815.4 4132.64,5789.53 4132.64,5769.4 C 4132.64,5748.83 4110.2,5722.4 4110.2,5722.4 C 4110.2,5722.4 4290.2,5769.4 4290.2,5769.4 C 4290.2,5769.4 4290.2,5769.4 4290.2,5769.4 " />
<text x="0" y="0" stroke="none" fill="#000000" transform="matrix(0.1 0 0 0.1 120.62 58.48)" font-style="normal" font-weight="normal" font-size="200px" font-family="Arial" >
+</text>
<text x="0" y="0" stroke="none" fill="#000000" transform="matrix(0.1 0 0 0.1 194.358 61.14)" font-style="normal" font-weight="normal" font-size="200px" font-family="Arial" >
R</text>
<text x="0" y="0" stroke="none" fill="#000000" transform="matrix(0.1 0 0 0.1 208.802 53.34)" font-style="normal" font-weight="normal" font-size="150px" font-family="Arial" >
3</text>
<text x="0" y="0" stroke="none" fill="#000000" transform="matrix(0.1 0 0 0.1 233.458 61.14)" font-style="normal" font-weight="normal" font-size="200px" font-family="Arial" >
NCS</text>
<path stroke="none" fill="#000000" transform="matrix(0.1 0 0 0.1 -20.6 -524.6)" d="M 2402.58,5785.4 L 2402.58,5773.4 L 2524.58,5773.4 L 2524.58,5785.4 L 2402.58,5785.4 Z " />
</svg>
