<?xml version="1.0" standalone="no" ?>
<!DOCTYPE svg PUBLIC "-//W3C//DTD SVG 1.1//EN" "http://www.w3.org/Graphics/SVG/1.1/DTD/svg11.dtd">
<svg width="582px" height="104px" viewBox="0 0 582 104" style="background-color: #ffffff00" xmlns="http://www.w3.org/2000/svg" xmlns:xlink="http://www.w3.org/1999/xlink" version="1.1" >
<text x="0" y="0" stroke="none" fill="#000000" transform="matrix(0.1 0 0 0.1 29.5583 56.18)" font-style="normal" font-weight="normal" font-size="200px" font-family="Arial" >
N</text>
<text x="0" y="0" stroke="none" fill="#000000" transform="matrix(0.1 0 0 0.1 54.4983 41.78)" font-style="normal" font-weight="normal" font-size="200px" font-family="Arial" >
H</text>
<path stroke="none" fill="#000000" transform="matrix(0.1 0 0 0.1 -20.6 -246.6)" d="M 718.527,2859.31 L 724.527,2869.7 L 673.557,2899.13 L 667.556,2888.74 L 718.527,2859.31 Z " />
<text x="0" y="0" stroke="none" fill="#000000" transform="matrix(0.1 0 0 0.1 4.61829 41.78)" font-style="normal" font-weight="normal" font-size="200px" font-family="Arial" >
R</text>
<text x="0" y="0" stroke="none" fill="#000000" transform="matrix(0.1 0 0 0.1 19.0617 33.98)" font-style="normal" font-weight="normal" font-size="150px" font-family="Arial" >
1</text>
<path stroke="none" fill="#000000" transform="matrix(0.1 0 0 0.1 -20.6 -246.6)" d="M 432.541,2875.17 L 438.541,2864.78 L 479.718,2888.55 L 473.718,2898.94 L 432.541,2875.17 Z " />
<text x="0" y="0" stroke="none" fill="#000000" transform="matrix(0.1 0 0 0.1 29.5583 84.98)" font-style="normal" font-weight="normal" font-size="200px" font-family="Arial" >
R</text>
<text x="0" y="0" stroke="none" fill="#000000" transform="matrix(0.1 0 0 0.1 44.0017 77.18)" font-style="normal" font-weight="normal" font-size="150px" font-family="Arial" >
2</text>
<path stroke="none" fill="#000000" transform="matrix(0.1 0 0 0.1 -20.6 -246.6)" d="M 579.8,3100.8 L 567.8,3100.8 L 567.8,3058.97 L 579.8,3058.97 L 579.8,3100.8 Z " />
<text x="0" y="0" stroke="none" fill="#000000" transform="matrix(0.1 0 0 0.1 206.638 68.18)" font-style="normal" font-weight="normal" font-size="200px" font-family="Arial" >
N</text>
<path stroke="none" fill="#000000" transform="matrix(0.1 0 0 0.1 -20.6 -246.6)" d="M 2594,2918.87 L 2594,2932.73 L 2444.36,3019.13 L 2438.36,3008.74 L 2594,2918.87 Z " />
<text x="0" y="0" stroke="none" fill="#000000" transform="matrix(0.1 0 0 0.1 256.518 68.18)" font-style="normal" font-weight="normal" font-size="200px" font-family="Arial" >
N</text>
<path stroke="none" fill="#000000" transform="matrix(0.1 0 0 0.1 -20.6 -246.6)" d="M 2749.32,3008.55 L 2743.32,3018.94 L 2594,2932.73 L 2594,2918.87 L 2749.32,3008.55 Z " />
<text x="0" y="0" stroke="none" fill="#000000" transform="matrix(0.1 0 0 0.1 232.13 24.98)" font-style="normal" font-weight="normal" font-size="200px" font-family="Arial" >
S</text>
<path stroke="none" fill="#000000" transform="matrix(0.1 0 0 0.1 -20.6 -246.6)" d="M 2562.08,2749.47 L 2574.08,2749.47 L 2574.08,2940.77 L 2562.08,2940.77 L 2562.08,2749.47 Z " />
<path stroke="none" fill="#000000" transform="matrix(0.1 0 0 0.1 -20.6 -246.6)" d="M 2613.92,2749.47 L 2625.92,2749.47 L 2625.92,2940.77 L 2613.92,2940.77 L 2613.92,2749.47 Z " />
<text x="0" y="0" stroke="none" fill="#000000" transform="matrix(0.1 0 0 0.1 302.098 77.88)" font-style="normal" font-weight="normal" font-size="200px" font-family="Arial" >
N</text>
<path stroke="none" fill="#000000" transform="matrix(0.1 0 0 0.1 -20.6 -246.6)" d="M 2878.91,3351.24 L 2867.89,3361.16 L 2848.76,3178.58 L 2860.7,3177.33 L 2878.91,3351.24 Z " />
<path stroke="none" fill="#000000" transform="matrix(0.1 0 0 0.1 -20.6 -246.6)" d="M 3152.18,3409.42 L 3158.22,3422.98 L 2867.89,3361.16 L 2878.91,3351.24 L 3152.18,3409.42 Z " />
<path stroke="none" fill="#000000" transform="matrix(0.1 0 0 0.1 -20.6 -246.6)" d="M 3130.38,3351.76 L 3127.88,3363.5 L 2919.8,3319.19 L 2922.3,3307.45 L 3130.38,3351.76 Z " />
<path stroke="none" fill="#000000" transform="matrix(0.1 0 0 0.1 -20.6 -246.6)" d="M 3230.53,3273.73 L 3240.92,3279.73 L 3158.22,3422.98 L 3152.18,3409.42 L 3230.53,3273.73 Z " />
<path stroke="none" fill="#000000" transform="matrix(0.1 0 0 0.1 -20.6 -246.6)" d="M 3104.86,2959.86 L 3107.94,2945.34 L 3225.85,3076.34 L 3216.93,3084.36 L 3104.86,2959.86 Z " />
<path stroke="none" fill="#000000" transform="matrix(0.1 0 0 0.1 -20.6 -246.6)" d="M 3088.61,3019.35 L 3097.53,3011.32 L 3187.29,3111.04 L 3178.37,3119.07 L 3088.61,3019.35 Z " />
<path stroke="none" fill="#000000" transform="matrix(0.1 0 0 0.1 -20.6 -246.6)" d="M 2944.97,3031.1 L 2940.09,3020.14 L 3107.94,2945.34 L 3104.86,2959.86 L 2944.97,3031.1 Z " />
<text x="0" y="0" stroke="none" fill="#000000" transform="matrix(0.1 0 0 0.1 161.038 77.88)" font-style="normal" font-weight="normal" font-size="200px" font-family="Arial" >
N</text>
<path stroke="none" fill="#000000" transform="matrix(0.1 0 0 0.1 -20.6 -246.6)" d="M 2082.94,2959.85 L 2079.86,2945.35 L 2247.54,3020.01 L 2242.66,3030.98 L 2082.94,2959.85 Z " />
<path stroke="none" fill="#000000" transform="matrix(0.1 0 0 0.1 -20.6 -246.6)" d="M 1970.68,3084.58 L 1961.76,3076.55 L 2079.86,2945.35 L 2082.94,2959.85 L 1970.68,3084.58 Z " />
<path stroke="none" fill="#000000" transform="matrix(0.1 0 0 0.1 -20.6 -246.6)" d="M 2009.23,3119.28 L 2000.31,3111.26 L 2090.28,3011.31 L 2099.2,3019.34 L 2009.23,3119.28 Z " />
<path stroke="none" fill="#000000" transform="matrix(0.1 0 0 0.1 -20.6 -246.6)" d="M 2035.62,3409.42 L 2029.58,3422.98 L 1946.77,3279.54 L 1957.16,3273.54 L 2035.62,3409.42 Z " />
<path stroke="none" fill="#000000" transform="matrix(0.1 0 0 0.1 -20.6 -246.6)" d="M 2308.89,3351.24 L 2319.91,3361.16 L 2029.58,3422.98 L 2035.62,3409.42 L 2308.89,3351.24 Z " />
<path stroke="none" fill="#000000" transform="matrix(0.1 0 0 0.1 -20.6 -246.6)" d="M 2265.52,3307.45 L 2268.02,3319.19 L 2059.91,3363.5 L 2057.42,3351.76 L 2265.52,3307.45 Z " />
<path stroke="none" fill="#000000" transform="matrix(0.1 0 0 0.1 -20.6 -246.6)" d="M 2327.23,3177.31 L 2339.16,3178.57 L 2319.91,3361.16 L 2308.89,3351.24 L 2327.23,3177.31 Z " />
<text x="0" y="0" stroke="none" fill="#000000" transform="matrix(0.1 0 0 0.1 492.578 70.56)" font-style="normal" font-weight="normal" font-size="200px" font-family="Arial" >
N</text>
<path stroke="none" fill="#000000" transform="matrix(0.1 0 0 0.1 -20.6 -246.6)" d="M 5447.7,2945.97 L 5453.4,2949.6 L 5453.81,2956.29 L 5303.76,3042.93 L 5297.76,3032.54 L 5447.7,2945.97 Z " />
<text x="0" y="0" stroke="none" fill="#000000" transform="matrix(0.1 0 0 0.1 467.638 56.16)" font-style="normal" font-weight="normal" font-size="200px" font-family="Arial" >
R</text>
<text x="0" y="0" stroke="none" fill="#000000" transform="matrix(0.1 0 0 0.1 482.082 48.36)" font-style="normal" font-weight="normal" font-size="150px" font-family="Arial" >
1</text>
<path stroke="none" fill="#000000" transform="matrix(0.1 0 0 0.1 -20.6 -246.6)" d="M 5062.74,3018.97 L 5068.74,3008.58 L 5109.92,3032.35 L 5103.92,3042.74 L 5062.74,3018.97 Z " />
<text x="0" y="0" stroke="none" fill="#000000" transform="matrix(0.1 0 0 0.1 492.578 99.36)" font-style="normal" font-weight="normal" font-size="200px" font-family="Arial" >
R</text>
<text x="0" y="0" stroke="none" fill="#000000" transform="matrix(0.1 0 0 0.1 507.022 91.56)" font-style="normal" font-weight="normal" font-size="150px" font-family="Arial" >
2</text>
<path stroke="none" fill="#000000" transform="matrix(0.1 0 0 0.1 -20.6 -246.6)" d="M 5210,3244.6 L 5198,3244.6 L 5198,3202.77 L 5210,3202.77 L 5210,3244.6 Z " />
<text x="0" y="0" stroke="none" fill="#000000" transform="matrix(0.1 0 0 0.1 544.038 67.42)" font-style="normal" font-weight="normal" font-size="200px" font-family="Arial" >
N</text>
<text x="0" y="0" stroke="none" fill="#000000" transform="matrix(0.1 0 0 0.1 562.938 45.68)" font-style="normal" font-weight="normal" font-size="200px" font-family="Arial" >
N</text>
<text x="0" y="0" stroke="none" fill="#000000" transform="matrix(0.1 0 0 0.1 548.098 20.98)" font-style="normal" font-weight="normal" font-size="200px" font-family="Arial" >
N</text>
<text x="0" y="0" stroke="none" fill="#000000" transform="matrix(0.1 0 0 0.1 520.59 27.46)" font-style="normal" font-weight="normal" font-size="200px" font-family="Arial" >
S</text>
<path stroke="none" fill="#000000" transform="matrix(0.1 0 0 0.1 -20.6 -246.6)" d="M 5621.26,3014.35 L 5616.57,3025.4 L 5453.81,2956.29 L 5453.4,2949.6 L 5459.76,2945.78 L 5621.26,3014.35 Z " />
<path stroke="none" fill="#000000" transform="matrix(0.1 0 0 0.1 -20.6 -246.6)" d="M 5641.52,2966.61 L 5636.83,2977.66 L 5506.01,2922.12 L 5510.7,2911.07 L 5641.52,2966.61 Z " />
<path stroke="none" fill="#000000" transform="matrix(0.1 0 0 0.1 -20.6 -246.6)" d="M 5819.67,2936.8 L 5828.73,2944.67 L 5799.25,2978.58 L 5790.19,2970.71 L 5819.67,2936.8 Z " />
<path stroke="none" fill="#000000" transform="matrix(0.1 0 0 0.1 -20.6 -246.6)" d="M 5819.4,2709.65 L 5829.68,2703.47 L 5853.61,2743.29 L 5843.33,2749.47 L 5819.4,2709.65 Z " />
<path stroke="none" fill="#000000" transform="matrix(0.1 0 0 0.1 -20.6 -246.6)" d="M 5774.94,2736.36 L 5785.22,2730.18 L 5809.15,2770.01 L 5798.87,2776.19 L 5774.94,2736.36 Z " />
<path stroke="none" fill="#000000" transform="matrix(0.1 0 0 0.1 -20.6 -246.6)" d="M 5566.19,2648.53 L 5563.49,2636.84 L 5662.08,2614.07 L 5664.78,2625.76 L 5566.19,2648.53 Z " />
<path stroke="none" fill="#000000" transform="matrix(0.1 0 0 0.1 -20.6 -246.6)" d="M 5459.76,2945.78 L 5453.4,2949.6 L 5447.7,2945.97 L 5462.88,2773.01 L 5474.84,2774.06 L 5459.76,2945.78 Z " />
<text x="0" y="0" stroke="none" fill="#000000" transform="matrix(0.1 0 0 0.1 109.16 58.22)" font-style="normal" font-weight="normal" font-size="200px" font-family="Arial" >
+</text>
<path stroke="none" fill="#000000" transform="matrix(0.1 0 0 0.1 -20.6 -246.6)" d="M 4323.64,2992.8 L 3773.6,2992.8 L 3773.6,2980.8 L 4323.64,2980.8 Z " />
<path stroke="none" fill="#000000" transform="matrix(0.1 0 0 0.1 -20.6 -246.6)" d="M 4480.2,2986.8 C 4480.2,2986.8 4300.2,3032.8 4300.2,3032.8 C 4300.2,3032.8 4322.64,3006.93 4322.64,2986.8 C 4322.64,2966.23 4300.2,2939.8 4300.2,2939.8 C 4300.2,2939.8 4480.2,2986.8 4480.2,2986.8 C 4480.2,2986.8 4480.2,2986.8 4480.2,2986.8 " />
<path stroke="#000000" stroke-width="1" fill="none" transform="matrix(0.1 0 0 0.1 -20.6 -246.6)" d="M 4480.2,2986.8 C 4480.2,2986.8 4300.2,3032.8 4300.2,3032.8 C 4300.2,3032.8 4322.64,3006.93 4322.64,2986.8 C 4322.64,2966.23 4300.2,2939.8 4300.2,2939.8 C 4300.2,2939.8 4480.2,2986.8 4480.2,2986.8 C 4480.2,2986.8 4480.2,2986.8 4480.2,2986.8 " />
</svg>
