<?xml version="1.0" standalone="no" ?>
<!DOCTYPE svg PUBLIC "-//W3C//DTD SVG 1.1//EN" "http://www.w3.org/Graphics/SVG/1.1/DTD/svg11.dtd">
<svg width="585px" height="113px" viewBox="0 0 585 113" style="background-color: #ffffff00" xmlns="http://www.w3.org/2000/svg" xmlns:xlink="http://www.w3.org/1999/xlink" version="1.1" >
<text x="0" y="0" stroke="none" fill="#000000" transform="matrix(0.1 0 0 0.1 53.8717 108.04)" font-style="normal" font-weight="normal" font-size="200px" font-family="Arial" >
O</text>
<text x="0" y="0" stroke="none" fill="#000000" transform="matrix(0.1 0 0 0.1 78.8117 64.84)" font-style="normal" font-weight="normal" font-size="200px" font-family="Arial" >
O</text>
<path stroke="none" fill="#000000" transform="matrix(0.1 0 0 0.1 -19.93 -95.6)" d="M 572.4,1810.94 L 566.4,1814.4 L 560.4,1810.94 L 560.4,1529.86 L 566.4,1526.4 L 572.4,1529.86 L 572.4,1810.94 Z " />
<path stroke="none" fill="#000000" transform="matrix(0.1 0 0 0.1 -19.93 -95.6)" d="M 624.24,1784.47 L 612.24,1784.47 L 612.24,1556.33 L 624.24,1556.33 L 624.24,1784.47 Z " />
<path stroke="none" fill="#000000" transform="matrix(0.1 0 0 0.1 -19.93 -95.6)" d="M 733.317,1903.85 L 727.317,1914.24 L 566.4,1821.33 L 566.4,1814.4 L 572.4,1810.94 L 733.317,1903.85 Z " />
<path stroke="none" fill="#000000" transform="matrix(0.1 0 0 0.1 -19.93 -95.6)" d="M 1059.2,1810.94 L 1065.2,1814.4 L 1065.2,1821.33 L 904.608,1914.05 L 898.607,1903.66 L 1059.2,1810.94 Z " />
<path stroke="none" fill="#000000" transform="matrix(0.1 0 0 0.1 -19.93 -95.6)" d="M 1059.2,1638.07 L 1071.2,1638.07 L 1071.2,1804.01 L 1065.2,1814.4 L 1059.2,1810.94 L 1059.2,1638.07 Z " />
<path stroke="none" fill="#000000" transform="matrix(0.1 0 0 0.1 -19.93 -95.6)" d="M 815.8,1389.33 L 815.8,1375.47 L 982.717,1471.85 L 976.717,1482.24 L 815.8,1389.33 Z " />
<path stroke="none" fill="#000000" transform="matrix(0.1 0 0 0.1 -19.93 -95.6)" d="M 572.4,1529.86 L 566.4,1526.4 L 566.4,1519.47 L 815.8,1375.47 L 815.8,1389.33 L 572.4,1529.86 Z " />
<text x="0" y="0" stroke="none" fill="#000000" transform="matrix(0.1 0 0 0.1 53.8717 21.64)" font-style="normal" font-weight="normal" font-size="200px" font-family="Arial" >
O</text>
<path stroke="none" fill="#000000" transform="matrix(0.1 0 0 0.1 -19.93 -95.6)" d="M 783.88,1206.07 L 795.88,1206.07 L 795.88,1397.37 L 783.88,1397.37 L 783.88,1206.07 Z " />
<path stroke="none" fill="#000000" transform="matrix(0.1 0 0 0.1 -19.93 -95.6)" d="M 835.72,1206.07 L 847.72,1206.07 L 847.72,1397.37 L 835.72,1397.37 L 835.72,1206.07 Z " />
<path stroke="none" fill="#000000" transform="matrix(0.1 0 0 0.1 -19.93 -95.6)" d="M 1317.6,1953.2 L 1311.6,1963.6 L 1065.2,1821.33 L 1065.2,1814.4 L 1077.2,1814.4 L 1317.6,1953.2 Z " />
<path stroke="none" fill="#000000" transform="matrix(0.1 0 0 0.1 -19.93 -95.6)" d="M 1311.6,1665.2 L 1317.6,1675.6 L 1077.2,1814.4 L 1065.2,1814.4 L 1071.2,1804.01 L 1311.6,1665.2 Z " />
<text x="0" y="0" stroke="none" fill="#000000" transform="matrix(0.1 0 0 0.1 4.5483 108.04)" font-style="normal" font-weight="normal" font-size="200px" font-family="Arial" >
R</text>
<text x="0" y="0" stroke="none" fill="#000000" transform="matrix(0.1 0 0 0.1 18.9917 100.24)" font-style="normal" font-weight="normal" font-size="150px" font-family="Arial" >
2</text>
<path stroke="none" fill="#000000" transform="matrix(0.1 0 0 0.1 -19.93 -95.6)" d="M 495.068,1862.51 L 489.067,1852.12 L 560.4,1810.94 L 566.4,1814.4 L 566.4,1821.33 L 495.068,1862.51 Z " />
<text x="0" y="0" stroke="none" fill="#000000" transform="matrix(0.1 0 0 0.1 181.628 78.18)" font-style="normal" font-weight="normal" font-size="200px" font-family="Arial" >
R</text>
<text x="0" y="0" stroke="none" fill="#000000" transform="matrix(0.1 0 0 0.1 196.072 70.38)" font-style="normal" font-weight="normal" font-size="150px" font-family="Arial" >
3</text>
<path stroke="none" fill="#000000" transform="matrix(0.1 0 0 0.1 -19.93 -95.6)" d="M 2337.2,1508.87 L 2337.2,1522.73 L 2263.3,1565.4 L 2257.3,1555 L 2337.2,1508.87 Z " />
<text x="0" y="0" stroke="none" fill="#000000" transform="matrix(0.1 0 0 0.1 231.508 78.18)" font-style="normal" font-weight="normal" font-size="200px" font-family="Arial" >
N</text>
<text x="0" y="0" stroke="none" fill="#000000" transform="matrix(0.1 0 0 0.1 231.508 94.8633)" font-style="normal" font-weight="normal" font-size="200px" font-family="Arial" >
H</text>
<path stroke="none" fill="#000000" transform="matrix(0.1 0 0 0.1 -19.93 -95.6)" d="M 2492.52,1598.55 L 2486.52,1608.94 L 2337.2,1522.73 L 2337.2,1508.87 L 2492.52,1598.55 Z " />
<text x="0" y="0" stroke="none" fill="#000000" transform="matrix(0.1 0 0 0.1 206.012 34.98)" font-style="normal" font-weight="normal" font-size="200px" font-family="Arial" >
O</text>
<path stroke="none" fill="#000000" transform="matrix(0.1 0 0 0.1 -19.93 -95.6)" d="M 2305.28,1339.47 L 2317.28,1339.47 L 2317.28,1530.77 L 2305.28,1530.77 L 2305.28,1339.47 Z " />
<path stroke="none" fill="#000000" transform="matrix(0.1 0 0 0.1 -19.93 -95.6)" d="M 2357.12,1339.47 L 2369.12,1339.47 L 2369.12,1530.77 L 2357.12,1530.77 L 2357.12,1339.47 Z " />
<text x="0" y="0" stroke="none" fill="#000000" transform="matrix(0.1 0 0 0.1 256.448 63.78)" font-style="normal" font-weight="normal" font-size="200px" font-family="Arial" >
R</text>
<text x="0" y="0" stroke="none" fill="#000000" transform="matrix(0.1 0 0 0.1 270.892 55.98)" font-style="normal" font-weight="normal" font-size="150px" font-family="Arial" >
4</text>
<path stroke="none" fill="#000000" transform="matrix(0.1 0 0 0.1 -19.93 -95.6)" d="M 2730.07,1570.03 L 2736.07,1580.42 L 2686.36,1609.13 L 2680.36,1598.74 L 2730.07,1570.03 Z " />
<text x="0" y="0" stroke="none" fill="#000000" transform="matrix(0.1 0 0 0.1 408.028 72.14)" font-style="normal" font-weight="normal" font-size="200px" font-family="Arial" >
R</text>
<text x="0" y="0" stroke="none" fill="#000000" transform="matrix(0.1 0 0 0.1 422.472 64.34)" font-style="normal" font-weight="normal" font-size="150px" font-family="Arial" >
3</text>
<path stroke="none" fill="#000000" transform="matrix(0.1 0 0 0.1 -19.93 -95.6)" d="M 4601.2,1448.47 L 4601.2,1462.33 L 4527.3,1505 L 4521.3,1494.6 L 4601.2,1448.47 Z " />
<text x="0" y="0" stroke="none" fill="#000000" transform="matrix(0.1 0 0 0.1 457.908 72.14)" font-style="normal" font-weight="normal" font-size="200px" font-family="Arial" >
N</text>
<path stroke="none" fill="#000000" transform="matrix(0.1 0 0 0.1 -19.93 -95.6)" d="M 4756.52,1538.15 L 4750.52,1548.54 L 4601.2,1462.33 L 4601.2,1448.47 L 4756.52,1538.15 Z " />
<text x="0" y="0" stroke="none" fill="#000000" transform="matrix(0.1 0 0 0.1 432.412 28.94)" font-style="normal" font-weight="normal" font-size="200px" font-family="Arial" >
O</text>
<path stroke="none" fill="#000000" transform="matrix(0.1 0 0 0.1 -19.93 -95.6)" d="M 4569.28,1279.07 L 4581.28,1279.07 L 4581.28,1470.37 L 4569.28,1470.37 L 4569.28,1279.07 Z " />
<path stroke="none" fill="#000000" transform="matrix(0.1 0 0 0.1 -19.93 -95.6)" d="M 4621.12,1279.07 L 4633.12,1279.07 L 4633.12,1470.37 L 4621.12,1470.37 L 4621.12,1279.07 Z " />
<path stroke="none" fill="#000000" transform="matrix(0.1 0 0 0.1 -19.93 -95.6)" d="M 5100,1448.47 L 5100,1462.33 L 4950.36,1548.73 L 4944.36,1538.34 L 5100,1448.47 Z " />
<text x="0" y="0" stroke="none" fill="#000000" transform="matrix(0.1 0 0 0.1 457.908 100.94)" font-style="normal" font-weight="normal" font-size="200px" font-family="Arial" >
R</text>
<text x="0" y="0" stroke="none" fill="#000000" transform="matrix(0.1 0 0 0.1 472.352 93.14)" font-style="normal" font-weight="normal" font-size="150px" font-family="Arial" >
4</text>
<path stroke="none" fill="#000000" transform="matrix(0.1 0 0 0.1 -19.93 -95.6)" d="M 4856.6,1776.73 L 4844.6,1776.73 L 4844.6,1708.57 L 4856.6,1708.57 L 4856.6,1776.73 Z " />
<path stroke="none" fill="#000000" transform="matrix(0.1 0 0 0.1 -19.93 -95.6)" d="M 5349.4,1592.47 L 5349.4,1599.4 L 5343.4,1602.86 L 5100,1462.33 L 5100,1448.47 L 5349.4,1592.47 Z " />
<text x="0" y="0" stroke="none" fill="#000000" transform="matrix(0.1 0 0 0.1 482.292 28.94)" font-style="normal" font-weight="normal" font-size="200px" font-family="Arial" >
O</text>
<path stroke="none" fill="#000000" transform="matrix(0.1 0 0 0.1 -19.93 -95.6)" d="M 5068.08,1279.07 L 5080.08,1279.07 L 5080.08,1470.37 L 5068.08,1470.37 L 5068.08,1279.07 Z " />
<path stroke="none" fill="#000000" transform="matrix(0.1 0 0 0.1 -19.93 -95.6)" d="M 5119.92,1279.07 L 5131.92,1279.07 L 5131.92,1470.37 L 5119.92,1470.37 L 5119.92,1279.07 Z " />
<path stroke="none" fill="#000000" transform="matrix(0.1 0 0 0.1 -19.93 -95.6)" d="M 5598.8,1448.47 L 5598.8,1462.33 L 5355.4,1602.86 L 5349.4,1599.4 L 5349.4,1592.47 L 5598.8,1448.47 Z " />
<text x="0" y="0" stroke="none" fill="#000000" transform="matrix(0.1 0 0 0.1 557.668 72.14)" font-style="normal" font-weight="normal" font-size="200px" font-family="Arial" >
R</text>
<text x="0" y="0" stroke="none" fill="#000000" transform="matrix(0.1 0 0 0.1 572.112 64.34)" font-style="normal" font-weight="normal" font-size="150px" font-family="Arial" >
2</text>
<path stroke="none" fill="#000000" transform="matrix(0.1 0 0 0.1 -19.93 -95.6)" d="M 5754.05,1538.11 L 5748.05,1548.5 L 5598.8,1462.33 L 5598.8,1448.47 L 5754.05,1538.11 Z " />
<text x="0" y="0" stroke="none" fill="#000000" transform="matrix(0.1 0 0 0.1 532.172 28.94)" font-style="normal" font-weight="normal" font-size="200px" font-family="Arial" >
O</text>
<path stroke="none" fill="#000000" transform="matrix(0.1 0 0 0.1 -19.93 -95.6)" d="M 5566.88,1279.07 L 5578.88,1279.07 L 5578.88,1470.37 L 5566.88,1470.37 L 5566.88,1279.07 Z " />
<path stroke="none" fill="#000000" transform="matrix(0.1 0 0 0.1 -19.93 -95.6)" d="M 5618.72,1279.07 L 5630.72,1279.07 L 5630.72,1470.37 L 5618.72,1470.37 L 5618.72,1279.07 Z " />
<text x="0" y="0" stroke="none" fill="#000000" transform="matrix(0.1 0 0 0.1 4.5483 50.44)" font-style="normal" font-weight="normal" font-size="200px" font-family="Arial" >
R</text>
<text x="0" y="0" stroke="none" fill="#000000" transform="matrix(0.1 0 0 0.1 18.9917 42.64)" font-style="normal" font-weight="normal" font-size="150px" font-family="Arial" >
1</text>
<path stroke="none" fill="#000000" transform="matrix(0.1 0 0 0.1 -19.93 -95.6)" d="M 425.141,1451.77 L 431.141,1441.38 L 566.4,1519.47 L 566.4,1526.4 L 560.4,1529.86 L 425.141,1451.77 Z " />
<text x="0" y="0" stroke="none" fill="#000000" transform="matrix(0.1 0 0 0.1 507.788 100.94)" font-style="normal" font-weight="normal" font-size="200px" font-family="Arial" >
R</text>
<text x="0" y="0" stroke="none" fill="#000000" transform="matrix(0.1 0 0 0.1 522.232 93.14)" font-style="normal" font-weight="normal" font-size="150px" font-family="Arial" >
1</text>
<path stroke="none" fill="#000000" transform="matrix(0.1 0 0 0.1 -19.93 -95.6)" d="M 5355.4,1766.4 L 5343.4,1766.4 L 5343.4,1602.86 L 5349.4,1599.4 L 5355.4,1602.86 L 5355.4,1766.4 Z " />
<text x="0" y="0" stroke="none" fill="#000000" transform="matrix(0.1 0 0 0.1 140.89 62.82)" font-style="normal" font-weight="normal" font-size="200px" font-family="Arial" >
+</text>
<path stroke="none" fill="#000000" transform="matrix(0.1 0 0 0.1 -19.93 -95.6)" d="M 3832.44,1528.6 L 3282.4,1528.6 L 3282.4,1516.6 L 3832.44,1516.6 Z " />
<path stroke="none" fill="#000000" transform="matrix(0.1 0 0 0.1 -19.93 -95.6)" d="M 3989,1522.6 C 3989,1522.6 3809,1568.6 3809,1568.6 C 3809,1568.6 3831.44,1542.73 3831.44,1522.6 C 3831.44,1502.03 3809,1475.6 3809,1475.6 C 3809,1475.6 3989,1522.6 3989,1522.6 C 3989,1522.6 3989,1522.6 3989,1522.6 " />
<path stroke="#000000" stroke-width="1" fill="none" transform="matrix(0.1 0 0 0.1 -19.93 -95.6)" d="M 3989,1522.6 C 3989,1522.6 3809,1568.6 3809,1568.6 C 3809,1568.6 3831.44,1542.73 3831.44,1522.6 C 3831.44,1502.03 3809,1475.6 3809,1475.6 C 3809,1475.6 3989,1522.6 3989,1522.6 C 3989,1522.6 3989,1522.6 3989,1522.6 " />
</svg>
