<?xml version="1.0" standalone="no" ?>
<!DOCTYPE svg PUBLIC "-//W3C//DTD SVG 1.1//EN" "http://www.w3.org/Graphics/SVG/1.1/DTD/svg11.dtd">
<svg width="583px" height="86px" viewBox="0 0 583 86" style="background-color: #ffffff00" xmlns="http://www.w3.org/2000/svg" xmlns:xlink="http://www.w3.org/1999/xlink" version="1.1" >
<text x="0" y="0" stroke="none" fill="#000000" transform="matrix(0.1 0 0 0.1 4.81006 58.24)" font-style="normal" font-weight="normal" font-size="200px" font-family="Arial" >
Ar</text>
<text x="0" y="0" stroke="none" fill="#000000" transform="matrix(0.1 0 0 0.1 40.3116 43.84)" font-style="normal" font-weight="normal" font-size="200px" font-family="Arial" >
Z</text>
<path stroke="none" fill="#000000" transform="matrix(0.1 0 0 0.1 -21.6 -685.6)" d="M 574.444,7270.53 L 580.444,7280.93 L 495.191,7330.15 L 489.191,7319.76 L 574.444,7270.53 Z " />
<text x="0" y="0" stroke="none" fill="#000000" transform="matrix(0.1 0 0 0.1 245.89 75.76)" font-style="normal" font-weight="normal" font-size="200px" font-family="Arial" >
EWG</text>
<path stroke="none" fill="#000000" transform="matrix(0.1 0 0 0.1 -21.6 -685.6)" d="M 2651.87,7476.86 L 2645.87,7487.26 L 2492.2,7398.53 L 2492.2,7391.6 L 2504.2,7391.6 L 2651.87,7476.86 Z " />
<text x="0" y="0" stroke="none" fill="#000000" transform="matrix(0.1 0 0 0.1 195.458 75.76)" font-style="normal" font-weight="normal" font-size="200px" font-family="Arial" >
R</text>
<text x="0" y="0" stroke="none" fill="#000000" transform="matrix(0.1 0 0 0.1 209.902 67.96)" font-style="normal" font-weight="normal" font-size="150px" font-family="Arial" >
1</text>
<path stroke="none" fill="#000000" transform="matrix(0.1 0 0 0.1 -21.6 -685.6)" d="M 2415.68,7442.71 L 2409.68,7432.32 L 2486.2,7388.14 L 2492.2,7391.6 L 2492.2,7398.53 L 2415.68,7442.71 Z " />
<text x="0" y="0" stroke="none" fill="#000000" transform="matrix(0.1 0 0 0.1 171.07 61.36)" font-style="normal" font-weight="normal" font-size="200px" font-family="Arial" >
X</text>
<path stroke="none" fill="#000000" transform="matrix(0.1 0 0 0.1 -21.6 -685.6)" d="M 2099,7459.5 L 2105,7449.11 L 2148.65,7474.31 L 2142.65,7484.7 L 2099,7459.5 Z " />
<text x="0" y="0" stroke="none" fill="#000000" transform="matrix(0.1 0 0 0.1 220.398 32.56)" font-style="normal" font-weight="normal" font-size="200px" font-family="Arial" >
R</text>
<text x="0" y="0" stroke="none" fill="#000000" transform="matrix(0.1 0 0 0.1 234.842 24.76)" font-style="normal" font-weight="normal" font-size="150px" font-family="Arial" >
2</text>
<path stroke="none" fill="#000000" transform="matrix(0.1 0 0 0.1 -21.6 -685.6)" d="M 2486.2,7212.6 L 2498.2,7212.6 L 2498.2,7381.21 L 2492.2,7391.6 L 2486.2,7388.14 L 2486.2,7212.6 Z " />
<text x="0" y="0" stroke="none" fill="#000000" transform="matrix(0.1 0 0 0.1 445.13 66.68)" font-style="normal" font-weight="normal" font-size="200px" font-family="Arial" >
Ar</text>
<path stroke="none" fill="#000000" transform="matrix(0.1 0 0 0.1 -21.6 -685.6)" d="M 5075.2,7298.6 L 5083.4,7300.8 L 5083.4,7307.73 L 4898.39,7414.55 L 4892.39,7404.16 L 5075.2,7298.6 Z " />
<text x="0" y="0" stroke="none" fill="#000000" transform="matrix(0.1 0 0 0.1 504.458 66.68)" font-style="normal" font-weight="normal" font-size="200px" font-family="Arial" >
R</text>
<text x="0" y="0" stroke="none" fill="#000000" transform="matrix(0.1 0 0 0.1 518.902 58.88)" font-style="normal" font-weight="normal" font-size="150px" font-family="Arial" >
1</text>
<path stroke="none" fill="#000000" transform="matrix(0.1 0 0 0.1 -21.6 -685.6)" d="M 5238.65,7383.51 L 5232.65,7393.9 L 5083.4,7307.73 L 5083.4,7300.8 L 5091.6,7298.6 L 5238.65,7383.51 Z " />
<text x="0" y="0" stroke="none" fill="#000000" transform="matrix(0.1 0 0 0.1 540.512 66.78)" font-style="normal" font-weight="normal" font-size="200px" font-family="Arial" >
Z</text>
<path stroke="none" fill="#000000" transform="matrix(0.1 0 0 0.1 -21.6 -685.6)" d="M 5594.13,7439.55 L 5594.1,7451.55 L 5492.56,7451.26 L 5492.6,7439.26 L 5594.13,7439.55 Z " />
<text x="0" y="0" stroke="none" fill="#000000" transform="matrix(0.1 0 0 0.1 494.47 27.34)" font-style="normal" font-weight="normal" font-size="200px" font-family="Arial" >
EWG</text>
<path stroke="none" fill="#000000" transform="matrix(0.1 0 0 0.1 -21.6 -685.6)" d="M 5159.03,7157.81 L 5169.42,7163.81 L 5091.6,7298.6 L 5083.4,7300.8 L 5083.4,7288.8 L 5159.03,7157.81 Z " />
<text x="0" y="0" stroke="none" fill="#000000" transform="matrix(0.1 0 0 0.1 465.118 27.34)" font-style="normal" font-weight="normal" font-size="200px" font-family="Arial" >
R</text>
<text x="0" y="0" stroke="none" fill="#000000" transform="matrix(0.1 0 0 0.1 479.562 19.54)" font-style="normal" font-weight="normal" font-size="150px" font-family="Arial" >
2</text>
<path stroke="none" fill="#000000" transform="matrix(0.1 0 0 0.1 -21.6 -685.6)" d="M 5000.24,7168.78 L 5010.64,7162.78 L 5083.4,7288.8 L 5083.4,7300.8 L 5075.2,7298.6 L 5000.24,7168.78 Z " />
<text x="0" y="0" stroke="none" fill="#000000" transform="matrix(0.1 0 0 0.1 564.358 81.18)" font-style="normal" font-weight="normal" font-size="200px" font-family="Arial" >
H</text>
<path stroke="none" fill="#000000" transform="matrix(0.1 0 0 0.1 -21.6 -685.6)" d="M 5838.45,7529.02 L 5832.46,7539.41 L 5781.41,7509.96 L 5787.4,7499.57 L 5838.45,7529.02 Z " />
<text x="0" y="0" stroke="none" fill="#000000" transform="matrix(0.1 0 0 0.1 64.1383 58.24)" font-style="normal" font-weight="normal" font-size="200px" font-family="Arial" >
H</text>
<path stroke="none" fill="#000000" transform="matrix(0.1 0 0 0.1 -21.6 -685.6)" d="M 836.268,7299.58 L 830.268,7309.98 L 779.397,7280.6 L 785.397,7270.21 L 836.268,7299.58 Z " />
<text x="0" y="0" stroke="none" fill="#000000" transform="matrix(0.1 0 0 0.1 245.338 46.96)" font-style="normal" font-weight="normal" font-size="200px" font-family="Arial" >
H</text>
<text x="0" y="0" stroke="none" fill="#000000" transform="matrix(0.1 0 0 0.1 259.782 39.16)" font-style="normal" font-weight="normal" font-size="150px" font-family="Arial" >
a</text>
<path stroke="none" fill="#000000" transform="matrix(0.1 0 0 0.1 -21.6 -685.6)" d="M 2637.07,7301.02 L 2643.07,7311.42 L 2504.2,7391.6 L 2492.2,7391.6 L 2498.2,7381.21 L 2637.07,7301.02 Z " />
<text x="0" y="0" stroke="none" fill="#000000" transform="matrix(0.1 0 0 0.1 118.98 49.1)" font-style="normal" font-weight="normal" font-size="200px" font-family="Arial" >
+</text>
<path stroke="none" fill="#000000" transform="matrix(0.1 0 0 0.1 -21.6 -685.6)" d="M 4106.64,7291.6 L 3556.6,7291.6 L 3556.6,7279.6 L 4106.64,7279.6 Z " />
<path stroke="none" fill="#000000" transform="matrix(0.1 0 0 0.1 -21.6 -685.6)" d="M 4263.2,7285.6 C 4263.2,7285.6 4083.2,7331.6 4083.2,7331.6 C 4083.2,7331.6 4105.64,7305.73 4105.64,7285.6 C 4105.64,7265.03 4083.2,7238.6 4083.2,7238.6 C 4083.2,7238.6 4263.2,7285.6 4263.2,7285.6 C 4263.2,7285.6 4263.2,7285.6 4263.2,7285.6 " />
<path stroke="#000000" stroke-width="1" fill="none" transform="matrix(0.1 0 0 0.1 -21.6 -685.6)" d="M 4263.2,7285.6 C 4263.2,7285.6 4083.2,7331.6 4083.2,7331.6 C 4083.2,7331.6 4105.64,7305.73 4105.64,7285.6 C 4105.64,7265.03 4083.2,7238.6 4083.2,7238.6 C 4083.2,7238.6 4263.2,7285.6 4263.2,7285.6 C 4263.2,7285.6 4263.2,7285.6 4263.2,7285.6 " />
</svg>
